<?xml version="1.0" encoding="UTF-8" standalone="no" ?>
<!DOCTYPE svg PUBLIC "-//W3C//DTD SVG 1.1//EN" "http://www.w3.org/Graphics/SVG/1.1/DTD/svg11.dtd">
<svg xmlns="http://www.w3.org/2000/svg" xmlns:xlink="http://www.w3.org/1999/xlink" version="1.1" width="1280" height="1024" viewBox="0 0 1280 1024" xml:space="preserve">
<desc>Created with Fabric.js 4.4.0</desc>
<defs>
</defs>
<g transform="matrix(1 0 0 1 640 512)" id="background-logo"  >
<rect style="stroke: none; stroke-width: 0; stroke-dasharray: none; stroke-linecap: butt; stroke-dashoffset: 0; stroke-linejoin: miter; stroke-miterlimit: 4; fill: rgb(255,255,255); fill-opacity: 0; fill-rule: nonzero; opacity: 1;"  paint-order="stroke"  x="-640" y="-512" rx="0" ry="0" width="1280" height="1024" />
</g>
<g transform="matrix(1.9211538461538462 0 0 1.9211538461538462 640 412.9084109096892)" id="logo-logo"  >
<g style=""  paint-order="stroke"   >
		<g transform="matrix(0.8787414449090982 0 0 0.8787414449090982 -1.1368684e-13 33.55447833033958)"  >
<path style="stroke: none; stroke-width: 1; stroke-dasharray: none; stroke-linecap: butt; stroke-dashoffset: 0; stroke-linejoin: miter; stroke-miterlimit: 4; fill: rgb(57,136,234); fill-rule: nonzero; opacity: 1;"  paint-order="stroke"  transform=" translate(-360.0749999999999, -395.4134425945196)" d="M 372.83 387.27 L 372.83 387.26 C 372.09999999999997 382.71999999999997 371.33 377.84 370.57 373.03999999999996 C 371.09 372.99999999999994 371.46999999999997 372.96 371.69 372.91999999999996 C 373.42 372.55999999999995 372.87 372.00999999999993 372.54 369.83 C 372.20000000000005 367.65999999999997 372.34000000000003 365.69 371.37 366.14 C 370.95 366.33 370.2 366.49 369.46 366.61 C 368.2 359.97 366.88 355.07 365.78999999999996 351.67 L 365.78999999999996 351.66 C 364.35999999999996 347.21000000000004 363.33 345.29 363.33 345.29 L 366.72999999999996 342.64000000000004 C 366.72999999999996 342.64000000000004 366.59 342.11000000000007 366.53999999999996 341.21000000000004 C 366.48999999999995 340.38000000000005 366.52 339.25000000000006 366.80999999999995 337.92 C 367.3999999999999 335.15000000000003 370.49999999999994 331.02000000000004 370.49999999999994 331.02000000000004 C 370.49999999999994 331.02000000000004 366.60999999999996 329.73 360.06999999999994 329.94000000000005 C 353.53999999999996 329.7300000000001 349.6499999999999 331.02000000000004 349.6499999999999 331.02000000000004 C 349.6499999999999 331.02000000000004 352.74999999999994 335.15000000000003 353.3399999999999 337.92 C 353.6099999999999 339.18 353.6499999999999 340.27000000000004 353.6199999999999 341.09000000000003 C 353.57999999999987 342.06000000000006 353.4199999999999 342.64000000000004 353.4199999999999 342.64000000000004 L 356.8099999999999 345.29 C 356.8099999999999 345.29 353.9499999999999 350.6 351.1699999999999 364.14000000000004 C 351.1699999999999 364.14000000000004 351.1699999999999 364.14000000000004 351.1699999999999 364.15000000000003 C 350.6499999999999 366.72 350.1199999999999 369.58000000000004 349.6199999999999 372.76000000000005 C 346.8799999999999 390.16 343.89999999999986 408.65000000000003 343.89999999999986 408.65000000000003 C 343.89999999999986 408.65000000000003 347.8199999999999 418.94000000000005 352.3899999999999 432.56000000000006 C 354.65999999999985 439.31000000000006 356.57999999999987 446.31000000000006 357.9499999999999 451.65000000000003 C 359.0699999999999 456.00000000000006 359.8099999999999 459.26000000000005 360.0699999999999 460.40000000000003 C 360.07999999999987 460.73 360.07999999999987 460.91 360.07999999999987 460.91 C 360.07999999999987 460.91 360.09999999999985 460.83000000000004 360.1299999999999 460.69 C 360.14999999999986 460.8 360.1699999999999 460.86 360.1699999999999 460.86 C 360.1699999999999 460.86 360.1699999999999 460.71000000000004 360.1799999999999 460.46000000000004 C 360.7299999999999 457.91 363.6499999999999 444.8 367.7599999999999 432.56000000000006 C 372.3199999999999 418.94000000000005 376.2499999999999 408.65000000000003 376.2499999999999 408.65000000000003 C 376.2499999999999 408.65000000000003 374.71 399.1 372.83 387.27 z M 369.89 371.46 C 369.7 371.91999999999996 368.86 372.34 366.90999999999997 372.32 C 363.4 372.29 355.27 372.24 354.36999999999995 371.45 C 354.36999999999995 371.45 353.98999999999995 371.09 354.17999999999995 369.99 C 354.30999999999995 369.27 356.50999999999993 369.12 358.93999999999994 368.88 C 361.36999999999995 368.64 368.04999999999995 367.65 369.2099999999999 367.83 C 370.37 368.02 370.16 370.8 369.89 371.46 z M 368.97 370.15 C 368.97 370.77 368.47 371.27 367.85 371.27 C 367.23 371.27 366.73 370.77 366.73 370.15 C 366.73 369.53 367.23 369.03 367.85 369.03 C 368.47 369.03 368.97 369.53 368.97 370.15 z" stroke-linecap="round" />
</g>
		<g transform="matrix(0.8787414449090982 0 0 0.8787414449090982 3.1942251522445986 38.46361785689908)"  >
<path style="stroke: none; stroke-width: 1; stroke-dasharray: none; stroke-linecap: butt; stroke-dashoffset: 0; stroke-linejoin: miter; stroke-miterlimit: 4; fill: rgb(20,98,194); fill-rule: nonzero; opacity: 1;"  paint-order="stroke"  transform=" translate(-363.71000000000004, -401)" d="M 372.83 387.27 C 371.02 392.43 367.8 402.47999999999996 364.59999999999997 416.65 C 361.40999999999997 430.75 359.12999999999994 444.15999999999997 357.95 451.65 C 359.07 456 359.81 459.26 360.07 460.4 C 360.08 460.72999999999996 360.08 460.90999999999997 360.08 460.90999999999997 C 360.08 460.90999999999997 360.09999999999997 460.83 360.13 460.68999999999994 C 360.15 460.79999999999995 360.17 460.85999999999996 360.17 460.85999999999996 C 360.17 460.85999999999996 360.17 460.71 360.18 460.46 C 360.73 457.90999999999997 363.65000000000003 444.79999999999995 367.76 432.56 C 372.32 418.94 376.25 408.65 376.25 408.65 C 376.25 408.65 374.71 399.1 372.83 387.27 z M 366.73 342.64 C 366.73 342.64 366.59000000000003 342.11 366.54 341.21 C 365.07 341.27 362.71000000000004 341.34 359.38 341.31 C 356.79 341.28000000000003 354.92 341.19 353.62 341.09 C 353.58 342.06 353.42 342.64 353.42 342.64 L 356.81 345.28999999999996 C 356.81 345.28999999999996 353.95 350.59999999999997 351.17 364.14 C 357.49 355.09 363.76 349.49 363.76 349.49 L 365.78999999999996 351.66 C 364.35999999999996 347.21000000000004 363.33 345.29 363.33 345.29 L 366.73 342.64 z" stroke-linecap="round" />
</g>
		<g transform="matrix(0.8787414449090982 0 0 0.8787414449090982 0 31.165670156929025)"  >
<linearGradient id="SVGID_1_3_379721" gradientUnits="userSpaceOnUse" gradientTransform="matrix(1 0 0 1 0 0)"  x1="347.6611" y1="403.349" x2="373.5177" y2="282.1841">
<stop offset="0%" style="stop-color:rgb(7,35,69);stop-opacity: 1"/>
<stop offset="100%" style="stop-color:rgb(29,120,231);stop-opacity: 1"/>
</linearGradient>
<path style="stroke: none; stroke-width: 1; stroke-dasharray: none; stroke-linecap: butt; stroke-dashoffset: 0; stroke-linejoin: miter; stroke-miterlimit: 4; fill: url(#SVGID_1_3_379721); fill-rule: nonzero; opacity: 1;"  paint-order="stroke"  transform=" translate(-360.075, -392.69500000000005)" d="M 327.58 395.84 L 318.89 413.90999999999997 C 318.89 413.90999999999997 312.76 404.09 306.43 385.98999999999995 C 299.51 366.2099999999999 297.43 341.46999999999997 297.43 341.46999999999997 L 314.95 335.33 L 301.82 350.21999999999997 C 301.82 350.21999999999997 303.99 356.24999999999994 312.8 371.95 C 320.8 386.19 327.58 395.84 327.58 395.84 z M 405.2 335.33 L 418.33 350.21999999999997 C 418.33 350.21999999999997 416.15999999999997 356.24999999999994 407.34999999999997 371.95 C 399.34999999999997 386.19 392.57 395.84 392.57 395.84 L 401.26 413.90999999999997 C 401.26 413.90999999999997 407.39 404.09 413.71999999999997 385.98999999999995 C 420.64 366.2099999999999 422.71999999999997 341.46999999999997 422.71999999999997 341.46999999999997 L 405.2 335.33 z M 389.03 396.35 C 389.03 396.35 393.84 388.46000000000004 402.66999999999996 372.86 C 411.49999999999994 357.26 414.71 350.7 414.71 350.7 L 399.32 332.38 L 391.61 326.15999999999997 L 388.8 323.89 C 388.8 323.89 391.14 333.55 391.47 335.78 C 391.95000000000005 339.07 383.61 370.71999999999997 376.58000000000004 393.91999999999996 C 375.51000000000005 397.42999999999995 374.48 400.73999999999995 373.51000000000005 403.73999999999995 C 364.13000000000005 432.7099999999999 360.66 454.31999999999994 360.07000000000005 460.15 C 359.49000000000007 454.32 356.01000000000005 432.71 346.63000000000005 403.74 C 345.66 400.74 344.63000000000005 397.43 343.56000000000006 393.92 C 336.5300000000001 370.72 328.19000000000005 339.07 328.6700000000001 335.78000000000003 C 329.00000000000006 333.55 331.3400000000001 323.89000000000004 331.3400000000001 323.89000000000004 L 328.5300000000001 326.16 L 320.8200000000001 332.38000000000005 L 305.4300000000001 350.70000000000005 C 305.4300000000001 350.70000000000005 308.6400000000001 357.26000000000005 317.47000000000014 372.86000000000007 C 326.3000000000001 388.4600000000001 331.1100000000001 396.3500000000001 331.1100000000001 396.3500000000001 L 321.60000000000014 415.12000000000006 C 349.6900000000001 445.00000000000006 358.69000000000017 459.2200000000001 359.98000000000013 461.3500000000001 L 360.0700000000001 461.50000000000006 L 360.1600000000001 461.3500000000001 C 361.44000000000005 459.2300000000001 370.44000000000005 445.0100000000001 398.5400000000001 415.12000000000006 L 389.03 396.35 z" stroke-linecap="round" />
</g>
		<g transform="matrix(0.8787414449090982 0 0 0.8787414449090982 0 -65.26523192662663)"  >
<linearGradient id="SVGID_2_4_379722" gradientUnits="userSpaceOnUse" gradientTransform="matrix(1 0 0 1 -360.12 -295.27)"  x1="353.0409" y1="311.763" x2="370.8103" y2="270.3702">
<stop offset="0%" style="stop-color:rgb(7,35,69);stop-opacity: 1"/>
<stop offset="100%" style="stop-color:rgb(21,103,203);stop-opacity: 1"/>
</linearGradient>
<circle style="stroke: none; stroke-width: 1; stroke-dasharray: none; stroke-linecap: butt; stroke-dashoffset: 0; stroke-linejoin: miter; stroke-miterlimit: 4; fill: url(#SVGID_2_4_379722); fill-rule: nonzero; opacity: 1;"  paint-order="stroke"  cx="0" cy="0" r="30" />
</g>
</g>
</g>
<g transform="matrix(1.9211538461538462 0 0 1.9211538461538462 639.7627375 663.278131071768)" id="text-logo"  >
<g style=""  paint-order="stroke"   >
		<g transform="matrix(1 0 0 1 0 0)" id="text-logo-path-0"  >
<path style="stroke: none; stroke-width: 0; stroke-dasharray: none; stroke-linecap: butt; stroke-dashoffset: 0; stroke-linejoin: miter; stroke-miterlimit: 4; fill: rgb(7,35,69); fill-rule: nonzero; opacity: 1;"  paint-order="stroke"  transform=" translate(-192.91, 13.299999999999999)" d="M 11.44 0.3 Q 8.4 0.3 6.12 -0.67 Q 3.84 -1.63 2.6 -3.44 Q 1.37 -5.24 1.37 -7.64 L 1.37 -7.64 L 1.37 -8.47 Q 1.37 -8.66 1.5 -8.8 Q 1.63 -8.93 1.82 -8.93 L 1.82 -8.93 L 6.16 -8.93 Q 6.35 -8.93 6.48 -8.8 Q 6.61 -8.66 6.61 -8.47 L 6.61 -8.47 L 6.61 -7.9 Q 6.61 -6.38 8.02 -5.34 Q 9.42 -4.29 11.82 -4.29 L 11.82 -4.29 Q 13.83 -4.29 14.82 -5.15 Q 15.81 -6 15.81 -7.26 L 15.81 -7.26 Q 15.81 -8.17 15.2 -8.8 Q 14.59 -9.42 13.55 -9.9 Q 12.5 -10.37 10.22 -11.21 L 10.22 -11.21 Q 7.68 -12.08 5.91 -13 Q 4.14 -13.91 2.94 -15.48 Q 1.75 -17.06 1.75 -19.38 L 1.75 -19.38 Q 1.75 -21.66 2.93 -23.37 Q 4.1 -25.08 6.19 -25.99 Q 8.28 -26.9 11.02 -26.9 L 11.02 -26.9 Q 13.91 -26.9 16.17 -25.88 Q 18.43 -24.85 19.7 -23.01 Q 20.98 -21.17 20.98 -18.73 L 20.98 -18.73 L 20.98 -18.16 Q 20.98 -17.97 20.84 -17.84 Q 20.71 -17.71 20.52 -17.71 L 20.52 -17.71 L 16.15 -17.71 Q 15.96 -17.71 15.83 -17.84 Q 15.69 -17.97 15.69 -18.16 L 15.69 -18.16 L 15.69 -18.47 Q 15.69 -20.06 14.38 -21.18 Q 13.07 -22.31 10.79 -22.31 L 10.79 -22.31 Q 9.01 -22.31 8 -21.55 Q 6.99 -20.79 6.99 -19.46 L 6.99 -19.46 Q 6.99 -18.51 7.58 -17.86 Q 8.17 -17.21 9.33 -16.7 Q 10.49 -16.19 12.92 -15.31 L 12.92 -15.31 Q 15.62 -14.33 17.16 -13.57 Q 18.7 -12.81 19.93 -11.3 Q 21.17 -9.8 21.17 -7.41 L 21.17 -7.41 Q 21.17 -3.84 18.54 -1.77 Q 15.92 0.3 11.44 0.3 L 11.44 0.3 Z M 53.12 0 Q 52.74 0 52.63 -0.38 L 52.63 -0.38 L 51.49 -4.1 Q 51.41 -4.26 51.3 -4.26 L 51.3 -4.26 L 41.95 -4.26 Q 41.84 -4.26 41.76 -4.1 L 41.76 -4.1 L 40.66 -0.38 Q 40.55 0 40.17 0 L 40.17 0 L 35.34 0 Q 35.11 0 35 -0.13 Q 34.88 -0.27 34.96 -0.53 L 34.96 -0.53 L 43.17 -26.22 Q 43.28 -26.6 43.66 -26.6 L 43.66 -26.6 L 49.63 -26.6 Q 50.01 -26.6 50.12 -26.22 L 50.12 -26.22 L 58.33 -0.53 Q 58.37 -0.46 58.37 -0.34 L 58.37 -0.34 Q 58.37 0 57.95 0 L 57.95 0 L 53.12 0 Z M 43.13 -8.63 Q 43.09 -8.4 43.28 -8.4 L 43.28 -8.4 L 49.97 -8.4 Q 50.2 -8.4 50.12 -8.63 L 50.12 -8.63 L 46.7 -19.91 Q 46.66 -20.06 46.59 -20.04 Q 46.51 -20.03 46.47 -19.91 L 46.47 -19.91 L 43.13 -8.63 Z M 81.55 0.3 Q 78.58 0.3 76.34 -0.85 Q 74.1 -2.01 72.88 -4.1 Q 71.67 -6.19 71.67 -8.93 L 71.67 -8.93 L 71.67 -17.71 Q 71.67 -20.44 72.88 -22.53 Q 74.1 -24.62 76.34 -25.76 Q 78.58 -26.9 81.55 -26.9 L 81.55 -26.9 Q 84.47 -26.9 86.7 -25.82 Q 88.92 -24.74 90.16 -22.74 Q 91.39 -20.75 91.39 -18.13 L 91.39 -18.13 Q 91.39 -17.78 90.93 -17.71 L 90.93 -17.71 L 86.49 -17.44 L 86.41 -17.44 Q 86.03 -17.44 86.03 -17.86 L 86.03 -17.86 Q 86.03 -19.87 84.8 -21.09 Q 83.56 -22.31 81.55 -22.31 L 81.55 -22.31 Q 79.5 -22.31 78.26 -21.09 Q 77.03 -19.87 77.03 -17.86 L 77.03 -17.86 L 77.03 -8.7 Q 77.03 -6.73 78.26 -5.51 Q 79.5 -4.29 81.55 -4.29 L 81.55 -4.29 Q 83.56 -4.29 84.8 -5.51 Q 86.03 -6.73 86.03 -8.7 L 86.03 -8.7 Q 86.03 -9.12 86.49 -9.12 L 86.49 -9.12 L 90.93 -8.93 Q 91.12 -8.93 91.26 -8.82 Q 91.39 -8.7 91.39 -8.55 L 91.39 -8.55 Q 91.39 -5.93 90.16 -3.91 Q 88.92 -1.9 86.7 -0.8 Q 84.47 0.3 81.55 0.3 L 81.55 0.3 Z M 122.89 0 Q 122.51 0 122.4 -0.38 L 122.4 -0.38 L 121.26 -4.1 Q 121.18 -4.26 121.07 -4.26 L 121.07 -4.26 L 111.72 -4.26 Q 111.61 -4.26 111.53 -4.1 L 111.53 -4.1 L 110.43 -0.38 Q 110.31 0 109.93 0 L 109.93 0 L 105.11 0 Q 104.88 0 104.77 -0.13 Q 104.65 -0.27 104.73 -0.53 L 104.73 -0.53 L 112.94 -26.22 Q 113.05 -26.6 113.43 -26.6 L 113.43 -26.6 L 119.4 -26.6 Q 119.78 -26.6 119.89 -26.22 L 119.89 -26.22 L 128.1 -0.53 Q 128.14 -0.46 128.14 -0.34 L 128.14 -0.34 Q 128.14 0 127.72 0 L 127.72 0 L 122.89 0 Z M 112.9 -8.63 Q 112.86 -8.4 113.05 -8.4 L 113.05 -8.4 L 119.74 -8.4 Q 119.97 -8.4 119.89 -8.63 L 119.89 -8.63 L 116.47 -19.91 Q 116.43 -20.06 116.36 -20.04 Q 116.28 -20.03 116.24 -19.91 L 116.24 -19.91 L 112.9 -8.63 Z M 180.12 -22.46 Q 180.12 -22.27 179.99 -22.13 Q 179.85 -22 179.66 -22 L 179.66 -22 L 167.2 -22 Q 167.01 -22 167.01 -21.81 L 167.01 -21.81 L 167.01 -15.92 Q 167.01 -15.73 167.2 -15.73 L 167.2 -15.73 L 175.37 -15.73 Q 175.56 -15.73 175.69 -15.6 Q 175.83 -15.47 175.83 -15.28 L 175.83 -15.28 L 175.83 -11.59 Q 175.83 -11.4 175.69 -11.27 Q 175.56 -11.13 175.37 -11.13 L 175.37 -11.13 L 167.2 -11.13 Q 167.01 -11.13 167.01 -10.94 L 167.01 -10.94 L 167.01 -4.79 Q 167.01 -4.6 167.2 -4.6 L 167.2 -4.6 L 179.66 -4.6 Q 179.85 -4.6 179.99 -4.46 Q 180.12 -4.33 180.12 -4.14 L 180.12 -4.14 L 180.12 -0.46 Q 180.12 -0.27 179.99 -0.13 Q 179.85 0 179.66 0 L 179.66 0 L 162.11 0 Q 161.92 0 161.78 -0.13 Q 161.65 -0.27 161.65 -0.46 L 161.65 -0.46 L 161.65 -26.14 Q 161.65 -26.33 161.78 -26.47 Q 161.92 -26.6 162.11 -26.6 L 162.11 -26.6 L 179.66 -26.6 Q 179.85 -26.6 179.99 -26.47 Q 180.12 -26.33 180.12 -26.14 L 180.12 -26.14 L 180.12 -22.46 Z M 194.37 0 Q 194.1 0 193.99 -0.15 Q 193.88 -0.3 194.03 -0.53 L 194.03 -0.53 L 201.4 -13.19 Q 201.48 -13.3 201.4 -13.41 L 201.4 -13.41 L 194.03 -26.07 L 193.95 -26.3 Q 193.95 -26.6 194.37 -26.6 L 194.37 -26.6 L 199.2 -26.6 Q 199.58 -26.6 199.77 -26.3 L 199.77 -26.3 L 204.71 -17.59 Q 204.82 -17.37 204.93 -17.59 L 204.93 -17.59 L 209.87 -26.3 Q 210.06 -26.6 210.44 -26.6 L 210.44 -26.6 L 215.23 -26.6 Q 215.5 -26.6 215.61 -26.45 Q 215.73 -26.3 215.57 -26.07 L 215.57 -26.07 L 208.2 -13.41 Q 208.16 -13.3 208.2 -13.19 L 208.2 -13.19 L 215.57 -0.53 L 215.65 -0.3 Q 215.65 0 215.23 0 L 215.23 0 L 210.44 0 Q 210.06 0 209.87 -0.3 L 209.87 -0.3 L 204.93 -8.97 Q 204.82 -9.2 204.71 -8.97 L 204.71 -8.97 L 199.73 -0.3 Q 199.54 0 199.16 0 L 199.16 0 L 194.37 0 Z M 241.26 -26.64 Q 243.77 -26.64 245.67 -25.61 Q 247.57 -24.59 248.62 -22.7 Q 249.66 -20.82 249.66 -18.39 L 249.66 -18.39 Q 249.66 -16 248.58 -14.17 Q 247.49 -12.35 245.54 -11.34 Q 243.58 -10.34 241.03 -10.34 L 241.03 -10.34 L 235.64 -10.34 Q 235.45 -10.34 235.45 -10.15 L 235.45 -10.15 L 235.45 -0.46 Q 235.45 -0.27 235.32 -0.13 Q 235.18 0 234.99 0 L 234.99 0 L 230.55 0 Q 230.36 0 230.22 -0.13 Q 230.09 -0.27 230.09 -0.46 L 230.09 -0.46 L 230.09 -26.18 Q 230.09 -26.37 230.22 -26.5 Q 230.36 -26.64 230.55 -26.64 L 230.55 -26.64 L 241.26 -26.64 Z M 240.46 -14.63 Q 242.21 -14.63 243.28 -15.64 Q 244.34 -16.64 244.34 -18.28 L 244.34 -18.28 Q 244.34 -19.95 243.28 -20.98 Q 242.21 -22 240.46 -22 L 240.46 -22 L 235.64 -22 Q 235.45 -22 235.45 -21.81 L 235.45 -21.81 L 235.45 -14.82 Q 235.45 -14.63 235.64 -14.63 L 235.64 -14.63 L 240.46 -14.63 Z M 282.72 -22.46 Q 282.72 -22.27 282.59 -22.13 Q 282.45 -22 282.26 -22 L 282.26 -22 L 269.8 -22 Q 269.61 -22 269.61 -21.81 L 269.61 -21.81 L 269.61 -15.92 Q 269.61 -15.73 269.8 -15.73 L 269.8 -15.73 L 277.97 -15.73 Q 278.16 -15.73 278.29 -15.6 Q 278.43 -15.47 278.43 -15.28 L 278.43 -15.28 L 278.43 -11.59 Q 278.43 -11.4 278.29 -11.27 Q 278.16 -11.13 277.97 -11.13 L 277.97 -11.13 L 269.8 -11.13 Q 269.61 -11.13 269.61 -10.94 L 269.61 -10.94 L 269.61 -4.79 Q 269.61 -4.6 269.8 -4.6 L 269.8 -4.6 L 282.26 -4.6 Q 282.45 -4.6 282.59 -4.46 Q 282.72 -4.33 282.72 -4.14 L 282.72 -4.14 L 282.72 -0.46 Q 282.72 -0.27 282.59 -0.13 Q 282.45 0 282.26 0 L 282.26 0 L 264.71 0 Q 264.52 0 264.39 -0.13 Q 264.25 -0.27 264.25 -0.46 L 264.25 -0.46 L 264.25 -26.14 Q 264.25 -26.33 264.39 -26.47 Q 264.52 -26.6 264.71 -26.6 L 264.71 -26.6 L 282.26 -26.6 Q 282.45 -26.6 282.59 -26.47 Q 282.72 -26.33 282.72 -26.14 L 282.72 -26.14 L 282.72 -22.46 Z M 312.32 0 Q 311.94 0 311.79 -0.34 L 311.79 -0.34 L 307.04 -10.87 Q 306.96 -11.02 306.81 -11.02 L 306.81 -11.02 L 303.28 -11.02 Q 303.09 -11.02 303.09 -10.83 L 303.09 -10.83 L 303.09 -0.46 Q 303.09 -0.27 302.96 -0.13 Q 302.82 0 302.63 0 L 302.63 0 L 298.19 0 Q 298 0 297.86 -0.13 Q 297.73 -0.27 297.73 -0.46 L 297.73 -0.46 L 297.73 -26.14 Q 297.73 -26.33 297.86 -26.47 Q 298 -26.6 298.19 -26.6 L 298.19 -26.6 L 309.05 -26.6 Q 311.49 -26.6 313.33 -25.61 Q 315.17 -24.62 316.18 -22.8 Q 317.19 -20.98 317.19 -18.58 L 317.19 -18.58 Q 317.19 -16 315.89 -14.15 Q 314.6 -12.31 312.28 -11.55 L 312.28 -11.55 Q 312.09 -11.48 312.17 -11.29 L 312.17 -11.29 L 317.34 -0.53 Q 317.41 -0.38 317.41 -0.3 L 317.41 -0.3 Q 317.41 0 317 0 L 317 0 L 312.32 0 Z M 303.28 -22 Q 303.09 -22 303.09 -21.81 L 303.09 -21.81 L 303.09 -15.31 Q 303.09 -15.12 303.28 -15.12 L 303.28 -15.12 L 308.26 -15.12 Q 309.85 -15.12 310.86 -16.07 Q 311.87 -17.02 311.87 -18.54 L 311.87 -18.54 Q 311.87 -20.06 310.86 -21.03 Q 309.85 -22 308.26 -22 L 308.26 -22 L 303.28 -22 Z M 350.66 -26.6 Q 350.85 -26.6 350.99 -26.47 Q 351.12 -26.33 351.12 -26.14 L 351.12 -26.14 L 351.12 -22.42 Q 351.12 -22.23 350.99 -22.1 Q 350.85 -21.96 350.66 -21.96 L 350.66 -21.96 L 343.86 -21.96 Q 343.67 -21.96 343.67 -21.77 L 343.67 -21.77 L 343.67 -0.46 Q 343.67 -0.27 343.54 -0.13 Q 343.41 0 343.22 0 L 343.22 0 L 338.77 0 Q 338.58 0 338.45 -0.13 Q 338.31 -0.27 338.31 -0.46 L 338.31 -0.46 L 338.31 -21.77 Q 338.31 -21.96 338.12 -21.96 L 338.12 -21.96 L 331.51 -21.96 Q 331.32 -21.96 331.19 -22.1 Q 331.06 -22.23 331.06 -22.42 L 331.06 -22.42 L 331.06 -26.14 Q 331.06 -26.33 331.19 -26.47 Q 331.32 -26.6 331.51 -26.6 L 331.51 -26.6 L 350.66 -26.6 Z M 374.72 0.3 Q 371.68 0.3 369.4 -0.67 Q 367.12 -1.63 365.88 -3.44 Q 364.65 -5.24 364.65 -7.64 L 364.65 -7.64 L 364.65 -8.47 Q 364.65 -8.66 364.78 -8.8 Q 364.91 -8.93 365.1 -8.93 L 365.1 -8.93 L 369.44 -8.93 Q 369.63 -8.93 369.76 -8.8 Q 369.89 -8.66 369.89 -8.47 L 369.89 -8.47 L 369.89 -7.9 Q 369.89 -6.38 371.3 -5.34 Q 372.7 -4.29 375.1 -4.29 L 375.1 -4.29 Q 377.11 -4.29 378.1 -5.15 Q 379.09 -6 379.09 -7.26 L 379.09 -7.26 Q 379.09 -8.17 378.48 -8.8 Q 377.87 -9.42 376.83 -9.9 Q 375.78 -10.37 373.5 -11.21 L 373.5 -11.21 Q 370.96 -12.08 369.19 -13 Q 367.42 -13.91 366.23 -15.48 Q 365.03 -17.06 365.03 -19.38 L 365.03 -19.38 Q 365.03 -21.66 366.21 -23.37 Q 367.38 -25.08 369.47 -25.99 Q 371.56 -26.9 374.3 -26.9 L 374.3 -26.9 Q 377.19 -26.9 379.45 -25.88 Q 381.71 -24.85 382.98 -23.01 Q 384.26 -21.17 384.26 -18.73 L 384.26 -18.73 L 384.26 -18.16 Q 384.26 -17.97 384.12 -17.84 Q 383.99 -17.71 383.8 -17.71 L 383.8 -17.71 L 379.43 -17.71 Q 379.24 -17.71 379.11 -17.84 Q 378.97 -17.97 378.97 -18.16 L 378.97 -18.16 L 378.97 -18.47 Q 378.97 -20.06 377.66 -21.18 Q 376.35 -22.31 374.07 -22.31 L 374.07 -22.31 Q 372.29 -22.31 371.28 -21.55 Q 370.27 -20.79 370.27 -19.46 L 370.27 -19.46 Q 370.27 -18.51 370.86 -17.86 Q 371.45 -17.21 372.61 -16.7 Q 373.77 -16.19 376.2 -15.31 L 376.2 -15.31 Q 378.9 -14.33 380.44 -13.57 Q 381.98 -12.81 383.21 -11.3 Q 384.45 -9.8 384.45 -7.41 L 384.45 -7.41 Q 384.45 -3.84 381.82 -1.77 Q 379.2 0.3 374.72 0.3 L 374.72 0.3 Z" stroke-linecap="round" />
</g>
</g>
</g>
</svg>